<?xml version="1.0" encoding="UTF-8"?>
<!DOCTYPE svg PUBLIC "-//W3C//DTD SVG 1.1//EN" "http://www.w3.org/Graphics/SVG/1.1/DTD/svg11.dtd">
<svg version="1.1" xmlns="http://www.w3.org/2000/svg" xmlns:xlink="http://www.w3.org/1999/xlink" x="0" y="0" width="15" height="15" viewBox="0, 0, 15, 15">
  <g id="Layer_1">
    <path d="M1.173,0.417 C1.413,0.516 1.558,0.593 1.724,0.783 C3.647,2.711 5.571,4.64 7.494,6.568 C9.426,4.64 11.357,2.71 13.289,0.783 C13.289,0.783 13.87,0.061 14.502,0.584 C15.047,1.197 14.32,1.801 14.319,1.801 C12.385,3.732 10.451,5.663 8.516,7.594 C10.372,9.454 12.228,11.315 14.083,13.176 C14.083,13.176 14.81,13.78 14.266,14.393 C13.634,14.916 13.053,14.194 13.053,14.194 L7.51,8.635 C5.581,10.56 3.653,12.485 1.724,14.41 C1.724,14.411 1.144,15.133 0.512,14.61 C-0.033,13.996 0.694,13.392 0.694,13.393 C2.625,11.465 4.556,9.537 6.487,7.61 L0.694,1.801 C0.694,1.801 -0.033,1.197 0.512,0.584 C0.867,0.368 0.654,0.447 1.173,0.417 z"/>
  </g>
</svg>
