<?xml version="1.0" encoding="UTF-8"?>
<!DOCTYPE svg PUBLIC "-//W3C//DTD SVG 1.1//EN" "http://www.w3.org/Graphics/SVG/1.1/DTD/svg11.dtd">
<svg version="1.1" xmlns="http://www.w3.org/2000/svg" xmlns:xlink="http://www.w3.org/1999/xlink" x="0" y="0" width="70" height="70" viewBox="0, 0, 100, 100">
  <g id="Layer_1">
    <path d="M20.672,81.403 C21.162,81.493 21.653,81.608 22.141,81.714 C27.725,82.824 24.426,82.198 32.05,83.513 C30.084,89.4 31.074,92.628 37,94.614 C42.718,96.173 48.029,96.14 48.029,96.14 C48.029,96.14 67.145,96.687 73.83,93.141 C80.515,89.594 77.744,82.698 77.744,82.698 C77.683,82.47 77.716,82.593 77.645,82.329 C78.993,82.088 78.331,82.206 79.631,81.974 C79.821,82.68 80.01,83.385 80.199,84.09 C80.199,84.09 83.777,91.457 75.147,95.245 C66.518,99.034 48.102,98.192 48.102,98.192 C48.102,98.192 28.698,98.31 23.688,94.824 C18.054,90.826 18.289,87.199 20.672,81.403 z"/>
    <path d="M29.518,54.386 C29.739,54.895 29.595,54.562 29.95,55.383 C33.843,63.848 31.644,59.286 36.641,69.021 C35.868,71.764 35.112,74.514 34.195,77.212 L33.707,78.535 C25.424,79.788 29.276,78.979 22.122,80.815 C21.233,81.047 21.684,80.929 20.769,81.168 L20.952,80.723 C24.22,72.089 26.806,63.205 29.518,54.386 z"/>
    <path d="M73.034,57.422 C75.06,64.937 77.077,72.454 79.094,79.971 L76.863,79.398 C75.156,73.003 73.454,66.607 71.752,60.21 L73.034,57.422 z"/>
    <path d="M50.348,1.21 C51.269,1.211 50.935,1.209 51.35,1.212 C51.35,1.212 62.11,1.125 63.272,2.048 C64.435,2.971 62.202,5.137 62.202,5.137 L62.046,5.298 C61.369,10.119 61.561,12.448 62.239,17.262 C62.385,18.297 62.707,19.299 62.94,20.318 C66.192,31.943 69.312,43.606 72.452,55.262 L70.82,56.697 C67.726,44.673 64.328,32.724 61.376,20.663 C60.107,14.797 60.063,8.726 60.466,2.76 L50.021,2.759 C50.448,8.7 50.825,14.884 49.418,20.739 C45.875,34.406 42.385,48.089 38.656,61.708 C35.958,59.47 33.304,57.198 30.796,54.75 C30.018,54.103 30.387,54.41 29.689,53.829 C33.084,42.678 36.409,31.505 39.683,20.318 C41.515,14.706 41.158,10.913 40.538,5.135 L40.481,5.135 C40.481,5.135 38.249,2.968 39.411,2.045 C40.646,1.468 42.46,1.446 43.7,1.376 C46.355,1.226 47.87,1.233 50.348,1.21 z"/>
    <path d="M51.794,47.315 C51.93,48.612 51.739,47.653 52.297,50.008 C53.913,57.59 55.836,65.328 55.512,73.142 L55.512,73.142 C59.109,68.221 64.056,64.352 68.572,60.301 C70.099,59.028 69.501,59.564 70.23,58.777 C69.68,59.698 70.026,58.973 69.234,60.796 C66.47,66.821 63.785,73.029 59.472,78.139 C64.849,78.534 70.168,79.122 75.357,80.69 C76.996,81.115 76.328,80.967 77.234,81.081 L77.233,81.081 C76.324,81.157 76.997,81.037 75.342,81.393 C69.118,82.415 59.505,84.966 53.381,82.311 C52.831,82.073 54.26,91.088 53.791,90.716 L50.709,90.751 C50.104,90.446 51.246,83.27 50.564,82.373 C43.473,84.59 35.738,82.911 28.642,81.497 C26.987,81.142 27.66,81.262 26.751,81.185 L26.75,81.185 C27.656,81.071 26.988,81.219 28.627,80.795 C33.816,79.226 39.135,78.638 44.512,78.243 C40.199,73.133 37.513,66.926 34.75,60.901 C33.957,59.077 34.304,59.802 33.754,58.882 L33.754,58.881 C34.483,59.668 33.885,59.132 35.412,60.406 C39.378,64.562 44.897,67.689 48.053,72.597 C47.95,64.954 49.652,57.427 51.291,50.008 C51.849,47.653 51.658,48.612 51.794,47.315 z M51.828,52.475 z"/>
  </g>
</svg>
