<?xml version="1.0" encoding="UTF-8"?>
<!DOCTYPE svg PUBLIC "-//W3C//DTD SVG 1.1//EN" "http://www.w3.org/Graphics/SVG/1.1/DTD/svg11.dtd">
<svg version="1.1" xmlns="http://www.w3.org/2000/svg" xmlns:xlink="http://www.w3.org/1999/xlink" x="0" y="0" width="72" height="72" viewBox="0, 0, 72, 72">
  <g id="Layer_1">
    <path d="M14.247,59.487 C14.61,59.554 14.974,59.639 15.336,59.717 C19.478,60.541 17.032,60.077 22.686,61.052 C21.228,65.419 21.963,67.814 26.358,69.287 C30.6,70.444 34.54,70.419 34.54,70.419 C34.54,70.419 48.72,70.825 53.679,68.194 C58.638,65.563 56.582,60.447 56.582,60.447 C56.537,60.279 56.561,60.37 56.509,60.174 C57.509,59.995 57.017,60.083 57.982,59.911 C58.123,60.434 58.263,60.957 58.403,61.48 C58.403,61.48 61.057,66.945 54.656,69.755 C48.255,72.565 34.594,71.941 34.594,71.941 C34.594,71.941 20.2,72.028 16.484,69.443 C12.304,66.477 12.479,63.787 14.247,59.487 z"/>
    <path d="M20.809,39.446 C20.972,39.823 20.865,39.577 21.129,40.185 C24.016,46.464 22.385,43.081 26.093,50.302 C25.519,52.336 24.958,54.377 24.278,56.378 L23.916,57.36 C17.771,58.289 20.629,57.689 15.322,59.051 C14.663,59.223 14.997,59.135 14.318,59.312 L14.454,58.982 C16.878,52.578 18.797,45.988 20.809,39.446 z"/>
    <path d="M53.089,41.698 C54.591,47.273 56.088,52.849 57.584,58.425 L55.929,58 C54.662,53.256 53.4,48.511 52.138,43.766 L53.089,41.698 z"/>
    <path d="M36.26,-0 C36.943,0.001 36.696,-0 37.003,0.002 C37.003,0.002 44.985,-0.063 45.847,0.622 C46.709,1.306 45.053,2.913 45.053,2.913 L44.938,3.032 C44.435,6.609 44.578,8.337 45.081,11.907 C45.189,12.675 45.428,13.419 45.601,14.174 C48.013,22.798 50.328,31.449 52.657,40.096 L51.446,41.16 C49.151,32.241 46.63,23.377 44.44,14.43 C43.5,10.079 43.467,5.575 43.766,1.15 L36.018,1.149 C36.334,5.556 36.614,10.144 35.57,14.486 C32.942,24.625 30.353,34.775 27.587,44.877 C25.586,43.217 23.617,41.532 21.757,39.716 C21.179,39.236 21.453,39.463 20.935,39.033 C23.454,30.761 25.92,22.473 28.349,14.174 C29.708,10.012 29.443,7.198 28.983,2.912 L28.941,2.911 C28.941,2.912 27.285,1.304 28.147,0.62 C29.063,0.191 30.409,0.176 31.328,0.123 C33.298,0.012 34.422,0.017 36.26,-0 z"/>
    <path d="M37.332,34.2 C37.434,35.163 37.292,34.452 37.706,36.198 C38.905,41.823 40.331,47.563 40.091,53.359 L40.091,53.359 C42.759,49.709 46.428,46.839 49.778,43.834 C50.911,42.889 50.468,43.287 51.008,42.703 C50.6,43.386 50.857,42.848 50.269,44.201 C48.219,48.67 46.227,53.275 43.028,57.065 C47.016,57.358 50.962,57.795 54.812,58.958 C56.027,59.273 55.532,59.164 56.204,59.248 L56.203,59.248 C55.529,59.305 56.029,59.216 54.801,59.48 C50.184,60.238 43.053,62.13 38.51,60.161 C38.102,59.984 39.162,66.672 38.814,66.395 L36.528,66.421 C36.079,66.195 36.926,60.872 36.42,60.206 C31.16,61.851 25.422,60.606 20.158,59.557 C18.931,59.293 19.43,59.382 18.756,59.325 L18.755,59.325 C19.427,59.241 18.932,59.351 20.148,59.036 C23.997,57.872 27.942,57.436 31.931,57.143 C28.731,53.352 26.739,48.748 24.69,44.279 C24.102,42.926 24.359,43.464 23.951,42.781 L23.951,42.78 C24.491,43.364 24.048,42.966 25.181,43.911 C28.122,46.994 32.217,49.314 34.558,52.954 C34.481,47.285 35.744,41.702 36.96,36.198 C37.374,34.452 37.232,35.163 37.333,34.201 z M37.358,38.028 z"/>
  </g>
</svg>
