<?xml version="1.0" encoding="UTF-8"?>
<!DOCTYPE svg PUBLIC "-//W3C//DTD SVG 1.1//EN" "http://www.w3.org/Graphics/SVG/1.1/DTD/svg11.dtd">
<svg version="1.1" xmlns="http://www.w3.org/2000/svg" xmlns:xlink="http://www.w3.org/1999/xlink" x="0" y="0" width="20" height="20" viewBox="0, 0, 20, 20">
  <g id="Layer_1">
    <path d="M10,19.751 C10,19.751 3.951,14.564 1.859,11.573 C-0.232,8.583 -0.175,5.757 0.208,4.14 C0.787,1.702 2.481,-0.206 5.704,0.344 C8.926,0.893 10,3.471 10,3.471 C10,3.471 11.074,0.893 14.296,0.344 C17.519,-0.206 19.213,1.702 19.792,4.14 C20.175,5.757 20.232,8.583 18.141,11.573 C16.049,14.564 10,19.751 10,19.751 M10,17.621 C10,17.621 15.105,13.243 16.871,10.719 C18.636,8.195 18.588,5.81 18.264,4.446 C17.776,2.388 16.157,1.141 13.626,2.239 C10.989,3.382 10,5.913 10,5.913 C10,5.913 8.884,3.426 6.374,2.239 C3.842,1.041 2.224,2.388 1.736,4.446 C1.412,5.81 1.364,8.195 3.129,10.719 C4.895,13.243 10,17.621 10,17.621"/>
  </g>
</svg>
