<?xml version="1.0" encoding="UTF-8"?>
<!DOCTYPE svg PUBLIC "-//W3C//DTD SVG 1.1//EN" "http://www.w3.org/Graphics/SVG/1.1/DTD/svg11.dtd">
<svg version="1.1" xmlns="http://www.w3.org/2000/svg" xmlns:xlink="http://www.w3.org/1999/xlink" x="0" y="0" width="20" height="20" viewBox="0, 0, 20, 20">
  <g id="Layer_1">
    <path d="M9.992,-0 C10.08,0.199 10.032,0.071 10.103,0.397 C10.396,1.099 10.584,1.811 10.789,2.539 L10.877,2.585 C11.327,2.502 11.427,4.354 11.677,4.437 C11.927,4.52 11.711,6.005 11.827,6.155 C11.944,6.305 12.078,6.155 12.211,6.222 C12.344,6.288 12.311,8.207 12.311,8.207 C12.311,8.207 12.478,7.773 12.711,7.273 C12.945,6.772 12.978,6.839 13.195,6.972 C13.412,7.106 13.479,6.489 13.679,6.338 C13.879,6.188 13.879,6.806 14.012,6.472 C14.146,6.138 14.963,5.171 15.18,5.221 C15.397,5.271 15.547,5.121 15.764,4.737 C15.981,4.354 17.015,3.369 17.265,3.403 C17.515,3.436 16.865,5.855 16.965,6.055 C17.065,6.255 16.314,6.722 16.531,7.072 C16.748,7.423 16.565,7.273 16.615,7.489 C16.665,7.706 15.48,9.541 15.48,9.808 C15.48,10.075 14.463,11.176 14.463,11.176 C14.463,11.176 13.545,11.893 13.462,11.943 C13.379,11.993 13.195,12.11 13.178,12.26 C13.162,12.41 14.213,11.659 14.496,11.643 C14.78,11.626 15.447,10.976 15.814,11.076 C16.181,11.176 16.281,10.976 16.731,10.709 C17.182,10.442 17.399,10.475 17.482,10.609 C17.565,10.742 18.066,10.492 18.066,10.492 C18.066,10.492 19.283,10.108 19.584,10.108 C19.884,10.108 19.15,10.642 19.15,10.642 C19.15,10.642 16.798,12.844 16.214,13.077 C15.63,13.311 16.198,13.394 16.298,13.494 C16.398,13.594 15.38,14.045 14.93,14.095 C14.48,14.145 14.079,14.312 14.263,14.395 C14.446,14.478 14.346,14.528 14.346,14.528 C14.346,14.528 13.095,14.845 12.761,14.979 C12.428,15.112 10.36,15.029 10.96,15.146 C11.561,15.262 13.545,16.246 13.979,16.396 C14.413,16.547 13.979,16.63 13.979,16.63 C13.979,16.63 13.746,16.547 14.146,16.947 C14.546,17.347 14.763,18.465 14.646,18.431 C14.53,18.398 13.812,17.581 13.812,17.581 C13.812,17.581 13.779,17.681 13.579,17.664 C13.379,17.647 12.995,17.264 12.995,17.264 C12.995,17.264 12.445,16.647 12.428,17.014 C12.411,17.381 12.283,17.263 12.283,17.263 C11.66,16.737 11.037,16.21 10.414,15.684 L10.278,15.781 L10.236,15.832 C10.287,16.847 10.355,17.862 10.379,18.879 C10.379,19.377 10.411,20 10.411,20 L9.976,19.969 L9.976,16.147 C9.438,16.924 8.66,17.408 7.845,17.826 C6.698,18.099 5.843,18.663 5.843,18.663 C5.843,18.663 7.354,17.061 7.59,16.897 C8.235,16.254 9.109,15.964 9.976,15.76 L9.976,15.629 C9.719,15.52 9.461,15.41 9.204,15.3 C8.339,15.615 7.418,15.749 6.516,15.914 C3.567,16.424 0.745,14.695 0.745,14.695 C2.504,14.474 4.271,14.388 6.04,14.322 L6.808,14.348 C7.653,14.427 8.506,14.614 9.246,15.045 C9.78,15.265 9.537,15.165 9.976,15.345 L9.976,15.17 C9.6,14.559 9.812,14.903 9.34,14.135 C7.509,12.982 5.657,11.841 3.992,10.453 C2.702,9.252 0.344,5.026 0.344,5.026 C0.344,5.026 2.346,7.073 5.371,8.718 C7.424,9.884 8.62,11.898 9.525,13.998 C9.953,14.616 9.802,14.399 9.976,14.65 L9.976,13.273 C9.093,11.533 8.906,9.683 8.929,7.742 C8.937,7.054 9.107,6.376 9.196,5.694 C9.535,4.242 9.888,2.779 9.976,1.285 L9.976,0.131 C9.966,0.032 9.975,0.076 9.952,0 L9.952,-0 C9.959,0.018 9.966,0.036 9.973,0.054 C9.974,0.056 9.975,0.059 9.976,0.061 L9.976,0.038 L9.992,-0 z"/>
  </g>
</svg>
