<?xml version="1.0" encoding="UTF-8"?>
<!DOCTYPE svg PUBLIC "-//W3C//DTD SVG 1.1//EN" "http://www.w3.org/Graphics/SVG/1.1/DTD/svg11.dtd">
<svg version="1.1" xmlns="http://www.w3.org/2000/svg" xmlns:xlink="http://www.w3.org/1999/xlink" x="0" y="0" width="20" height="20" viewBox="0, 0, 20, 20">
  <defs>
    <clipPath id="Clip_1">
      <path d="M-98.41,-36.694 L31.511,-36.694 L31.511,53.98 L-98.41,53.98 z"/>
    </clipPath>
  </defs>
  <g id="Layer_1">
    <path d="M9.773,15.519 C9.773,15.519 7.71,17.263 7.71,17.263 C7.71,17.263 7.581,17.381 7.565,17.014 C7.548,16.647 6.998,17.264 6.998,17.264 C6.998,17.264 6.614,17.647 6.414,17.664 C6.214,17.681 6.18,17.581 6.18,17.581 C6.18,17.581 5.463,18.398 5.346,18.431 C5.23,18.465 5.446,17.347 5.847,16.947 C6.247,16.547 6.013,16.63 6.013,16.63 C6.013,16.63 5.58,16.547 6.013,16.396 C6.447,16.246 8.432,15.262 9.033,15.145 C9.633,15.029 7.565,15.112 7.231,14.979 C6.898,14.845 5.647,14.528 5.647,14.528 C5.647,14.528 5.546,14.478 5.73,14.395 C5.913,14.311 5.513,14.145 5.063,14.095 C4.612,14.045 3.595,13.594 3.695,13.494 C3.795,13.394 4.362,13.311 3.778,13.077 C3.195,12.844 0.843,10.642 0.843,10.642 C0.843,10.642 0.109,10.108 0.409,10.108 C0.709,10.108 1.927,10.492 1.927,10.492 C1.927,10.492 2.427,10.742 2.511,10.609 C2.594,10.475 2.811,10.442 3.261,10.709 C3.712,10.975 3.812,11.176 4.179,11.076 C4.546,10.975 5.213,11.626 5.496,11.643 C5.78,11.659 6.831,12.41 6.814,12.26 C6.797,12.11 6.614,11.993 6.531,11.943 C6.447,11.893 5.53,11.176 5.53,11.176 C5.53,11.176 4.512,10.075 4.512,9.808 C4.512,9.541 3.328,7.706 3.378,7.489 C3.428,7.273 3.245,7.423 3.461,7.072 C3.678,6.722 2.928,6.255 3.028,6.055 C3.128,5.855 2.477,3.436 2.728,3.403 C2.978,3.369 4.012,4.354 4.229,4.737 C4.446,5.121 4.596,5.271 4.813,5.221 C5.029,5.171 5.847,6.138 5.98,6.472 C6.114,6.806 6.114,6.188 6.314,6.338 C6.514,6.489 6.581,7.106 6.797,6.972 C7.014,6.839 7.048,6.772 7.281,7.273 C7.515,7.773 7.681,8.207 7.681,8.207 C7.681,8.207 7.648,6.288 7.782,6.222 C7.915,6.155 8.048,6.305 8.165,6.155 C8.282,6.005 8.065,4.52 8.315,4.437 C8.566,4.354 8.666,2.502 9.116,2.585 C9.566,2.669 9.9,-0.017 10,0 C10.1,-0.017 10.434,2.669 10.884,2.585 C11.334,2.502 11.434,4.354 11.685,4.437 C11.935,4.52 11.718,6.005 11.835,6.155 C11.952,6.305 12.085,6.155 12.218,6.222 C12.352,6.288 12.319,8.207 12.319,8.207 C12.319,8.207 12.485,7.773 12.719,7.273 C12.952,6.772 12.986,6.839 13.203,6.972 C13.419,7.106 13.486,6.489 13.686,6.338 C13.886,6.188 13.886,6.806 14.02,6.472 C14.153,6.138 14.971,5.171 15.187,5.221 C15.404,5.271 15.554,5.121 15.771,4.737 C15.988,4.354 17.022,3.369 17.272,3.403 C17.523,3.436 16.872,5.855 16.972,6.055 C17.072,6.255 16.322,6.722 16.539,7.072 C16.755,7.423 16.572,7.273 16.622,7.489 C16.672,7.706 15.488,9.541 15.488,9.808 C15.488,10.075 14.47,11.176 14.47,11.176 C14.47,11.176 13.553,11.893 13.469,11.943 C13.386,11.993 13.203,12.11 13.186,12.26 C13.169,12.41 14.22,11.659 14.504,11.643 C14.787,11.626 15.454,10.975 15.821,11.076 C16.188,11.176 16.288,10.975 16.739,10.709 C17.189,10.442 17.406,10.475 17.489,10.609 C17.573,10.742 18.073,10.492 18.073,10.492 C18.073,10.492 19.291,10.108 19.591,10.108 C19.891,10.108 19.157,10.642 19.157,10.642 C19.157,10.642 16.805,12.844 16.222,13.077 C15.638,13.311 16.205,13.394 16.305,13.494 C16.405,13.594 15.388,14.045 14.937,14.095 C14.487,14.145 14.087,14.311 14.27,14.395 C14.454,14.478 14.353,14.528 14.353,14.528 C14.353,14.528 13.102,14.845 12.769,14.979 C12.435,15.112 10.367,15.029 10.967,15.145 C11.568,15.262 13.553,16.246 13.987,16.396 C14.42,16.547 13.987,16.63 13.987,16.63 C13.987,16.63 13.753,16.547 14.153,16.947 C14.554,17.347 14.77,18.465 14.654,18.431 C14.537,18.398 13.82,17.581 13.82,17.581 C13.82,17.581 13.786,17.681 13.586,17.664 C13.386,17.647 13.002,17.264 13.002,17.264 C13.002,17.264 12.452,16.647 12.435,17.014 C12.419,17.381 12.29,17.263 12.29,17.263 C12.29,17.263 10.226,15.519 10.226,15.519 C10.226,15.519 10.387,18.381 10.387,18.879 C10.387,19.377 10.418,20 10.418,20 L9.982,19.969 L9.773,15.519 z"/>
  </g>
</svg>
