<?xml version="1.0" encoding="UTF-8"?>
<!DOCTYPE svg PUBLIC "-//W3C//DTD SVG 1.1//EN" "http://www.w3.org/Graphics/SVG/1.1/DTD/svg11.dtd">
<svg version="1.1" xmlns="http://www.w3.org/2000/svg" xmlns:xlink="http://www.w3.org/1999/xlink" x="0" y="0" width="160" height="160" viewBox="0, 0, 160, 160">
  <g id="Layer_1">
    <path d="M108.938,173.646 C108.938,173.646 100.729,163.068 98.275,161.714 C95.821,160.36 88.628,151.813 88.628,151.813 L84.481,144.112 L90.913,134.633 C90.913,134.633 95.483,125.071 95.144,124.394 C94.806,123.717 98.275,116.439 101.237,113.731 C104.199,111.023 110.546,107.468 112.577,104.76 C114.608,102.052 118.86,93.548 118.86,93.548 C118.86,93.548 123.352,79.984 123.616,77.165 C123.88,74.347 124.673,75.404 124.937,70.735 C125.201,66.067 125.553,61.84 125.818,61.047 C126.082,60.254 128.284,54.617 128.108,52.768 C127.932,50.918 128.196,48.804 127.755,46.778 C127.315,44.752 126.346,36.121 126.17,34.271 C125.994,32.421 125.906,25.816 124.232,23.173 C122.559,20.531 118.331,16.391 114.896,14.013 C111.461,11.635 101.596,8.905 98.866,8.552 C96.135,8.2 83.1,8.288 73.94,12.34 C64.78,16.391 59.847,22.292 56.941,25.904 C54.034,29.515 49.982,39.82 49.982,39.82 C49.982,39.82 47.604,49.861 47.78,51.623 C47.957,53.384 43.641,53.12 46.371,61.487 C49.102,69.855 49.894,71.616 50.335,72.673 C50.775,73.73 52.889,83.507 51.48,87.118 C50.071,90.729 48.485,95.397 48.485,95.397 C48.485,95.397 43.553,103.501 42.32,104.469 C41.087,105.438 34.216,108.873 34.216,108.873 C34.216,108.873 31.222,107.464 30.429,107.64 C29.636,107.816 15.015,114.51 5.855,116.536 C-3.305,118.562 -13.61,126.489 -13.61,126.489 C-13.61,126.489 -11.099,178.04 -11.099,177.348 C-11.099,176.656 108.938,173.646 108.938,173.646 z"/>
  </g>
</svg>
