<?xml version="1.0" encoding="UTF-8"?>
<!DOCTYPE svg PUBLIC "-//W3C//DTD SVG 1.1//EN" "http://www.w3.org/Graphics/SVG/1.1/DTD/svg11.dtd">
<svg version="1.1" xmlns="http://www.w3.org/2000/svg" xmlns:xlink="http://www.w3.org/1999/xlink" x="0" y="0" width="20" height="20" viewBox="0, 0, 20, 20">
  <defs>
    <clipPath id="Clip_1">
      <path d="M-18.572,-64.153 L185.685,-64.153 L185.685,78.401 L-18.572,78.401 z"/>
    </clipPath>
  </defs>
  <g id="Layer_1">
    <path d="M9.608,0.668 C9.608,0.669 11.521,5.472 10.987,7.341 C10.454,9.671 10.237,12.066 10.033,14.445 C10.106,14.942 10.178,15.44 10.251,15.938 C10.415,15.688 10.579,15.439 10.743,15.189 C11.501,12.9 12.997,11.039 14.974,9.698 C17.998,8.052 20,6.006 20,6.006 C20,6.006 17.643,10.232 16.353,11.433 C14.725,12.803 12.9,13.922 11.104,15.054 C10.865,15.401 10.627,15.749 10.388,16.096 C10.716,15.992 11.043,15.882 11.374,15.786 C12.141,15.29 13.047,15.128 13.938,15.017 L14.705,14.99 C16.475,15.018 18.242,15.164 20,15.363 C20,15.363 17.178,17.092 14.229,16.583 C13.309,16.429 12.393,16.251 11.507,15.958 C11.156,16.087 10.805,16.216 10.455,16.346 L10.455,16.359 C11.49,16.472 12.369,16.914 13.155,17.566 C13.392,17.73 14.903,19.332 14.903,19.331 C14.903,19.332 14.047,18.767 12.9,18.494 C11.854,18.143 11.129,17.257 10.453,16.432 C10.431,17.367 10.41,18.302 10.388,19.237 L10.115,19.237 L9.934,16.449 C9.275,17.302 8.52,18.096 7.501,18.494 C6.354,18.767 5.499,19.332 5.499,19.332 C5.499,19.332 7.009,17.73 7.246,17.566 C7.955,16.87 8.875,16.57 9.829,16.382 C9.218,16.121 9.541,16.259 8.86,15.969 C7.995,16.283 7.074,16.417 6.172,16.583 C3.223,17.092 0.401,15.363 0.401,15.363 C2.159,15.143 3.927,15.057 5.696,14.99 L6.463,15.017 C7.309,15.095 8.162,15.282 8.901,15.713 C9.193,15.833 9.484,15.953 9.776,16.073 C9.516,15.65 9.256,15.227 8.996,14.804 C7.164,13.65 5.313,12.51 3.647,11.122 C2.358,9.921 0,5.695 0,5.695 C0,5.695 2.002,7.741 5.026,9.387 C7.079,10.552 8.276,12.566 9.181,14.666 C9.458,15.067 9.736,15.469 10.013,15.87 C9.951,15.365 9.89,14.861 9.827,14.356 C8.504,11.878 8.299,9.083 8.852,6.362 C10.013,1.603 9.608,0.669 9.608,0.669 z"/>
  </g>
</svg>
