<?xml version="1.0" encoding="UTF-8"?>
<!DOCTYPE svg PUBLIC "-//W3C//DTD SVG 1.1//EN" "http://www.w3.org/Graphics/SVG/1.1/DTD/svg11.dtd">
<svg version="1.1" xmlns="http://www.w3.org/2000/svg" xmlns:xlink="http://www.w3.org/1999/xlink" x="0" y="0" width="24" height="24" viewBox="0, 0, 24, 24">
  <g id="Layer_1">
    <path d="M9.86,0 C14.438,0 18.149,3.711 18.149,8.289 C18.158,10.643 17.147,12.671 15.515,14.303 C18.284,17.587 19.126,18.499 21.894,21.783 C21.894,21.783 22.988,22.829 22.049,23.748 C20.981,24.512 20.135,23.294 20.135,23.294 C17.346,19.954 16.444,18.984 13.655,15.644 C12.478,16.305 11.184,16.512 9.86,16.579 C5.282,16.579 1.57,12.867 1.57,8.289 C1.57,3.711 5.282,0 9.86,0 z M9.86,1.749 C6.248,1.749 3.319,4.677 3.319,8.289 C3.319,11.902 6.248,14.83 9.86,14.83 C13.472,14.83 16.4,11.902 16.4,8.289 C16.4,4.677 13.472,1.749 9.86,1.749 z" fill="#000000"/>
  </g>
</svg>
